<svg xmlns="http://www.w3.org/2000/svg" xmlns:xlink="http://www.w3.org/1999/xlink" width="48" zoomAndPan="magnify" viewBox="0 0 36 36.000001" height="48" preserveAspectRatio="xMidYMid meet" version="1.0"><defs><clipPath id="3f7d98eced"><path d="M 0.488281 0 L 35.511719 0 L 35.511719 35.027344 L 0.488281 35.027344 Z M 0.488281 0 " clip-rule="nonzero"/></clipPath><clipPath id="cce47fd0d4"><path d="M 0.488281 0 L 18 0 L 18 35.027344 L 0.488281 35.027344 Z M 0.488281 0 " clip-rule="nonzero"/></clipPath><clipPath id="2634125faa"><path d="M 21.066406 0 L 35.511719 0 L 35.511719 15.761719 L 21.066406 15.761719 Z M 21.066406 0 " clip-rule="nonzero"/></clipPath><clipPath id="b6c273e685"><path d="M 6.824219 17 L 10 17 L 10 22 L 6.824219 22 Z M 6.824219 17 " clip-rule="nonzero"/></clipPath><clipPath id="bc3d20dc5c"><path d="M 14 28 L 27 28 L 27 32.546875 L 14 32.546875 Z M 14 28 " clip-rule="nonzero"/></clipPath><clipPath id="950677a269"><path d="M 16 2.628906 L 24 2.628906 L 24 10 L 16 10 Z M 16 2.628906 " clip-rule="nonzero"/></clipPath><clipPath id="15c7c09691"><path d="M 20 12 L 28 12 L 28 32.546875 L 20 32.546875 Z M 20 12 " clip-rule="nonzero"/></clipPath><clipPath id="266d793747"><path d="M 13 12 L 17 12 L 17 32.546875 L 13 32.546875 Z M 13 12 " clip-rule="nonzero"/></clipPath><clipPath id="d08dc517bb"><path d="M 24 13 L 29.445312 13 L 29.445312 26 L 24 26 Z M 24 13 " clip-rule="nonzero"/></clipPath><clipPath id="250dfa0ab1"><path d="M 22.417969 22.902344 L 29.445312 22.902344 L 29.445312 27.171875 L 22.417969 27.171875 Z M 22.417969 22.902344 " clip-rule="nonzero"/></clipPath><clipPath id="4ec46b3485"><path d="M 13 26 L 14 26 L 14 32.546875 L 13 32.546875 Z M 13 26 " clip-rule="nonzero"/></clipPath></defs><g clip-path="url(#3f7d98eced)"><path fill="#ffffff" d="M 0.488281 0 L 35.511719 0 L 35.511719 35.027344 L 0.488281 35.027344 Z M 0.488281 0 " fill-opacity="1" fill-rule="nonzero"/><path fill="#ffffff" d="M 0.488281 0 L 35.511719 0 L 35.511719 35.027344 L 0.488281 35.027344 Z M 0.488281 0 " fill-opacity="1" fill-rule="nonzero"/></g><g clip-path="url(#cce47fd0d4)"><path fill="#93f4fe" d="M 0.488281 0 L 18 0 L 18 35.027344 L 0.488281 35.027344 Z M 0.488281 0 " fill-opacity="1" fill-rule="nonzero"/></g><g clip-path="url(#2634125faa)"><path fill="#ffcf7b" d="M 21.066406 0 L 35.511719 0 L 35.511719 15.746094 L 21.066406 15.746094 Z M 21.066406 0 " fill-opacity="1" fill-rule="nonzero"/></g><path fill="#b25b4f" d="M 12.472656 23.839844 C 12.472656 23.839844 11.554688 24.355469 11.230469 24.480469 C 10.273438 24.84375 9.535156 24.5625 9.003906 23.558594 C 8.828125 23.222656 8.792969 22.835938 8.875 22.46875 L 9.253906 20.820312 L 10.890625 19.878906 C 11.960938 19.304688 13.792969 22.457031 12.472656 23.839844 " fill-opacity="1" fill-rule="nonzero"/><path fill="#b25b4f" d="M 16.851562 19.988281 C 16.246094 20.773438 14.75 22.074219 12.472656 23.839844 C 13.269531 22.625 12.226562 19.742188 10.890625 19.878906 C 11.648438 18.589844 12.15625 16.832031 12.84375 15.273438 C 13.285156 14.269531 14.675781 14.152344 15.300781 15.054688 L 16.644531 16.933594 C 17.058594 17.503906 17.28125 19.429688 16.851562 19.988281 " fill-opacity="1" fill-rule="nonzero"/><path fill="#270a54" d="M 12.472656 23.964844 C 12.453125 23.964844 12.4375 23.960938 12.417969 23.949219 C 12.355469 23.921875 12.332031 23.847656 12.359375 23.785156 C 12.695312 23.101562 12.75 21.59375 12.140625 20.988281 C 12.089844 20.941406 12.089844 20.863281 12.140625 20.816406 C 12.1875 20.765625 12.265625 20.765625 12.316406 20.816406 C 13.035156 21.527344 12.957031 23.140625 12.585938 23.894531 C 12.5625 23.9375 12.519531 23.964844 12.472656 23.964844 " fill-opacity="1" fill-rule="nonzero"/><path fill="#ffcfcf" d="M 8.875 22.46875 C 8.875 23.230469 9.914062 23.339844 10.691406 22.960938 C 11.46875 22.585938 12.011719 22.003906 11.589844 21.328125 C 11.304688 20.867188 10.527344 20.753906 9.75 21.132812 C 8.972656 21.507812 8.875 21.90625 8.875 22.46875 " fill-opacity="1" fill-rule="nonzero"/><path fill="#ffcfcf" d="M 10.328125 22.359375 C 9.503906 22.636719 8.808594 22.632812 8.3125 22.214844 L 8.011719 20.789062 L 9.023438 19.785156 L 8.660156 19.601562 L 8.503906 19.421875 C 8.226562 19.097656 8.167969 18.371094 8.261719 17.953125 C 8.316406 17.71875 8.597656 17.617188 8.789062 17.765625 C 8.804688 18.042969 8.855469 18.363281 9.066406 18.476562 C 9.121094 18.507812 9.167969 18.550781 9.191406 18.609375 L 9.433594 19.214844 L 11.335938 20.203125 L 11.507812 21.441406 L 10.328125 22.359375 " fill-opacity="1" fill-rule="nonzero"/><path fill="#270a54" d="M 11.507812 21.5625 C 11.445312 21.5625 11.394531 21.519531 11.382812 21.457031 L 11.222656 20.28125 L 9.375 19.324219 C 9.355469 19.3125 9.335938 19.296875 9.324219 19.277344 C 9.210938 19.074219 8.636719 18.0625 8.667969 17.753906 C 8.671875 17.683594 8.734375 17.632812 8.804688 17.640625 C 8.871094 17.648438 8.921875 17.707031 8.914062 17.777344 C 8.898438 17.929688 9.210938 18.574219 9.523438 19.121094 L 11.394531 20.09375 C 11.429688 20.109375 11.453125 20.144531 11.460938 20.183594 L 11.632812 21.425781 C 11.640625 21.492188 11.59375 21.554688 11.527344 21.5625 C 11.519531 21.5625 11.515625 21.5625 11.507812 21.5625 " fill-opacity="1" fill-rule="nonzero"/><path fill="#270a54" d="M 9.433594 22.695312 C 8.851562 22.695312 8.339844 22.402344 7.859375 21.8125 C 7.816406 21.757812 7.824219 21.679688 7.878906 21.636719 C 7.933594 21.59375 8.011719 21.601562 8.054688 21.65625 C 8.753906 22.523438 9.511719 22.667969 10.5 22.128906 C 10.5625 22.09375 10.636719 22.117188 10.671875 22.175781 C 10.703125 22.234375 10.683594 22.3125 10.621094 22.34375 C 10.195312 22.578125 9.800781 22.695312 9.433594 22.695312 " fill-opacity="1" fill-rule="nonzero"/><g clip-path="url(#b6c273e685)"><path fill="#ffffff" d="M 9.773438 21.132812 C 9.59375 21.28125 9.328125 21.253906 9.179688 21.074219 L 6.972656 18.410156 C 6.824219 18.234375 6.851562 17.96875 7.03125 17.824219 C 7.210938 17.679688 7.480469 17.703125 7.625 17.882812 L 9.832031 20.546875 C 9.980469 20.726562 9.957031 20.988281 9.773438 21.132812 " fill-opacity="1" fill-rule="nonzero"/></g><path fill="#270a54" d="M 9.761719 20.753906 C 9.722656 20.753906 9.6875 20.738281 9.660156 20.707031 L 7.527344 17.957031 C 7.484375 17.902344 7.496094 17.824219 7.550781 17.785156 C 7.605469 17.742188 7.683594 17.753906 7.726562 17.808594 L 9.859375 20.554688 C 9.902344 20.609375 9.890625 20.6875 9.835938 20.726562 C 9.8125 20.746094 9.789062 20.753906 9.761719 20.753906 " fill-opacity="1" fill-rule="nonzero"/><path fill="#ffcfcf" d="M 9.476562 22.265625 C 9.558594 21.859375 9.636719 21.414062 10.101562 21.5 C 10.304688 21.070312 9.472656 20.238281 8.71875 19.675781 C 8.277344 19.605469 7.75 20.039062 7.191406 20.492188 C 7.644531 21.597656 8.3125 22.214844 9.476562 22.265625 " fill-opacity="1" fill-rule="nonzero"/><path fill="#270a54" d="M 9.550781 22.660156 C 9.5 22.660156 9.457031 22.632812 9.433594 22.585938 C 9.296875 22.277344 9.328125 21.949219 9.519531 21.691406 C 9.652344 21.519531 9.835938 21.402344 10.007812 21.378906 C 10.035156 21.0625 9.5 20.421875 8.667969 19.792969 C 8.300781 19.761719 7.820312 20.144531 7.3125 20.554688 L 7.269531 20.585938 C 7.214844 20.628906 7.136719 20.621094 7.09375 20.570312 C 7.050781 20.515625 7.058594 20.4375 7.113281 20.394531 L 7.152344 20.363281 C 7.71875 19.90625 8.253906 19.476562 8.738281 19.550781 C 8.757812 19.554688 8.777344 19.5625 8.792969 19.574219 C 9.199219 19.882812 10.507812 20.925781 10.214844 21.550781 C 10.195312 21.597656 10.144531 21.628906 10.089844 21.621094 C 9.996094 21.609375 9.832031 21.6875 9.722656 21.839844 C 9.640625 21.949219 9.523438 22.175781 9.664062 22.488281 C 9.691406 22.550781 9.664062 22.625 9.601562 22.652344 C 9.582031 22.65625 9.566406 22.660156 9.550781 22.660156 " fill-opacity="1" fill-rule="nonzero"/><g clip-path="url(#bc3d20dc5c)"><path fill="#d1aaa1" d="M 25.742188 28.515625 L 26.027344 52.695312 C 24.457031 52.695312 24.65625 54.234375 21.996094 53.875 L 19.84375 37.140625 L 19.820312 53.753906 C 18.808594 53.988281 17.199219 53.65625 15.46875 53.035156 L 14.128906 28.515625 L 25.742188 28.515625 " fill-opacity="1" fill-rule="nonzero"/></g><path fill="#a6caff" d="M 26.445312 14.484375 C 24.839844 19.695312 25.742188 24.75 25.742188 28.515625 C 22.917969 30.003906 17.066406 30.976562 14.128906 28.515625 L 14.472656 14.574219 C 15.363281 13.296875 17.371094 12.726562 17.371094 12.726562 L 21.519531 12.089844 C 21.519531 12.089844 24.667969 12.449219 26.445312 14.484375 " fill-opacity="1" fill-rule="nonzero"/><path fill="#d1aaa1" d="M 17.855469 3.601562 C 15.777344 3.253906 14.996094 5.246094 15.960938 8.117188 L 17.855469 3.601562 " fill-opacity="1" fill-rule="nonzero"/><path fill="#ffcfcf" d="M 17.714844 10.058594 L 17.503906 13.085938 C 17.515625 14.027344 21.773438 13.832031 21.777344 12.175781 L 21.804688 9.847656 L 17.714844 10.058594 " fill-opacity="1" fill-rule="nonzero"/><path fill="#ffcfcf" d="M 21.804688 9.847656 C 21.039062 11.3125 19.957031 11.953125 18.699219 12.042969 C 17.351562 12.140625 16.097656 11.75 15.953125 9.769531 C 15.898438 9.042969 16.019531 6.859375 16.019531 6.859375 C 16.019531 4.828125 17.320312 4.042969 19.140625 4.191406 C 22.359375 4.566406 22.359375 6.300781 22.359375 7.949219 L 21.804688 9.847656 " fill-opacity="1" fill-rule="nonzero"/><g clip-path="url(#950677a269)"><path fill="#d1aaa1" d="M 20.636719 7.859375 C 20.515625 7.5 20.394531 6.542969 20.636719 6.0625 C 20.925781 5.488281 21.117188 5.464844 21.117188 5.464844 C 21.207031 4.605469 20.457031 4.304688 19.425781 4.511719 C 19.078125 4.578125 18.457031 4.867188 17.855469 4.867188 C 17.25 4.867188 17.128906 4.628906 17.128906 4.628906 C 17.128906 4.628906 16.203125 3.296875 17.289062 2.894531 C 17.832031 2.695312 18.339844 3.394531 19.425781 3.09375 C 21.015625 2.65625 23.054688 3.652344 23.054688 6.183594 C 23.054688 8.816406 21.84375 9.890625 21.84375 9.890625 L 21.722656 8.816406 L 21.117188 8.335938 C 21.117188 8.335938 20.757812 8.21875 20.636719 7.859375 " fill-opacity="1" fill-rule="nonzero"/></g><path fill="#270a54" d="M 17.378906 7.667969 C 17.378906 7.855469 17.226562 8.003906 17.039062 8.003906 C 16.851562 8.003906 16.695312 7.855469 16.695312 7.667969 C 16.695312 7.480469 16.851562 7.328125 17.039062 7.328125 C 17.226562 7.328125 17.378906 7.480469 17.378906 7.667969 " fill-opacity="1" fill-rule="nonzero"/><path fill="#270a54" d="M 19.484375 7.667969 C 19.484375 7.855469 19.332031 8.003906 19.140625 8.003906 C 18.953125 8.003906 18.800781 7.855469 18.800781 7.667969 C 18.800781 7.480469 18.953125 7.328125 19.140625 7.328125 C 19.332031 7.328125 19.484375 7.480469 19.484375 7.667969 " fill-opacity="1" fill-rule="nonzero"/><path fill="#ffcfcf" d="M 21.035156 8.710938 C 20.945312 9.316406 21.164062 9.851562 21.523438 9.902344 C 21.882812 9.957031 22.25 9.507812 22.339844 8.898438 C 22.429688 8.292969 22.210938 7.757812 21.851562 7.707031 C 21.492188 7.652344 21.128906 8.101562 21.035156 8.710938 " fill-opacity="1" fill-rule="nonzero"/><path fill="#270a54" d="M 21.804688 9.96875 C 21.761719 9.96875 21.71875 9.945312 21.695312 9.90625 C 21.660156 9.847656 21.683594 9.773438 21.746094 9.738281 C 21.96875 9.613281 22.15625 9.269531 22.214844 8.882812 C 22.253906 8.609375 22.230469 8.347656 22.148438 8.140625 C 22.074219 7.957031 21.960938 7.847656 21.832031 7.828125 C 21.625 7.796875 21.386719 8.023438 21.25 8.375 C 21.226562 8.441406 21.15625 8.472656 21.089844 8.449219 C 21.027344 8.425781 20.992188 8.351562 21.019531 8.289062 C 21.199219 7.8125 21.535156 7.535156 21.871094 7.582031 C 22.089844 7.617188 22.269531 7.78125 22.378906 8.046875 C 22.480469 8.292969 22.507812 8.601562 22.460938 8.917969 C 22.390625 9.394531 22.164062 9.789062 21.867188 9.953125 C 21.847656 9.964844 21.824219 9.96875 21.804688 9.96875 " fill-opacity="1" fill-rule="nonzero"/><path fill="#270a54" d="M 18.042969 10.339844 C 17.804688 10.339844 17.460938 10.304688 17.261719 10.105469 C 17.210938 10.058594 17.210938 9.980469 17.261719 9.933594 C 17.308594 9.882812 17.390625 9.882812 17.4375 9.933594 C 17.5625 10.054688 17.851562 10.113281 18.191406 10.089844 C 18.597656 10.058594 18.902344 9.925781 18.984375 9.816406 C 19.023438 9.761719 19.101562 9.75 19.160156 9.792969 C 19.214844 9.832031 19.226562 9.910156 19.183594 9.964844 C 19.011719 10.195312 18.550781 10.308594 18.210938 10.335938 C 18.167969 10.339844 18.109375 10.339844 18.042969 10.339844 " fill-opacity="1" fill-rule="nonzero"/><path fill="#270a54" d="M 18.21875 12.046875 C 18.148438 12.046875 18.09375 11.992188 18.09375 11.925781 C 18.09375 11.855469 18.148438 11.800781 18.21875 11.800781 C 19.714844 11.800781 20.332031 11.527344 20.765625 10.671875 C 20.796875 10.613281 20.871094 10.585938 20.933594 10.617188 C 20.996094 10.648438 21.019531 10.722656 20.988281 10.785156 C 20.453125 11.847656 19.601562 12.046875 18.21875 12.046875 " fill-opacity="1" fill-rule="nonzero"/><path fill="#270a54" d="M 17.941406 9.222656 C 17.757812 9.222656 17.625 9.191406 17.53125 9.089844 C 17.359375 8.902344 17.398438 8.574219 17.59375 7.746094 C 17.609375 7.679688 17.675781 7.636719 17.746094 7.652344 C 17.8125 7.667969 17.855469 7.734375 17.839844 7.800781 C 17.714844 8.328125 17.613281 8.808594 17.71875 8.925781 C 17.796875 9.011719 18.109375 8.972656 18.445312 8.929688 C 18.511719 8.921875 18.574219 8.972656 18.582031 9.039062 C 18.589844 9.105469 18.542969 9.167969 18.472656 9.175781 C 18.265625 9.203125 18.089844 9.222656 17.941406 9.222656 " fill-opacity="1" fill-rule="nonzero"/><path fill="#270a54" d="M 18.199219 14.449219 L 17.203125 26.171875 L 18.308594 27.9375 L 19.65625 26.273438 L 19.035156 14.648438 L 18.199219 14.449219 " fill-opacity="1" fill-rule="nonzero"/><path fill="#a6caff" d="M 23.398438 12.371094 C 23.132812 12.992188 21.632812 14.242188 20.292969 14.785156 L 19.183594 14 L 18.558594 13.691406 L 18.148438 13.796875 L 17.203125 14.449219 C 16.636719 14.050781 16.453125 13.476562 16.355469 12.972656 C 16.632812 12.699219 17.191406 12.550781 17.554688 12.371094 C 17.503906 12.914062 17.894531 13.3125 18.558594 13.617188 C 18.558594 13.617188 21.480469 12.6875 21.78125 11.949219 L 23.398438 12.371094 " fill-opacity="1" fill-rule="nonzero"/><path fill="#270a54" d="M 18.558594 13.617188 L 17.683594 14 L 18.160156 14.886719 L 19.015625 14.886719 L 19.46875 14.199219 L 18.558594 13.617188 " fill-opacity="1" fill-rule="nonzero"/><path fill="#270a54" d="M 20.292969 14.910156 C 20.269531 14.910156 20.242188 14.902344 20.222656 14.886719 L 18.488281 13.71875 C 18.433594 13.679688 18.417969 13.601562 18.457031 13.546875 C 18.496094 13.488281 18.574219 13.476562 18.628906 13.511719 L 20.363281 14.683594 C 20.421875 14.722656 20.433594 14.800781 20.394531 14.855469 C 20.371094 14.890625 20.332031 14.910156 20.292969 14.910156 " fill-opacity="1" fill-rule="nonzero"/><path fill="#270a54" d="M 17.203125 14.570312 C 17.160156 14.570312 17.121094 14.550781 17.097656 14.511719 C 17.058594 14.457031 17.078125 14.378906 17.136719 14.34375 L 18.492188 13.511719 C 18.550781 13.472656 18.628906 13.492188 18.664062 13.550781 C 18.703125 13.609375 18.683594 13.683594 18.625 13.71875 L 17.269531 14.554688 C 17.25 14.566406 17.226562 14.570312 17.203125 14.570312 " fill-opacity="1" fill-rule="nonzero"/><g clip-path="url(#15c7c09691)"><path fill="#b25b4f" d="M 22.324219 12.070312 C 22.324219 12.070312 24.722656 12.53125 26.617188 13.898438 C 27.28125 14.375 27.132812 16.121094 27.003906 16.929688 C 26.285156 21.425781 26.867188 27.921875 26.867188 31.757812 C 25.566406 32.246094 21.144531 32.808594 21.0625 31.585938 C 21.0625 31.585938 20.253906 18.398438 22.324219 12.070312 " fill-opacity="1" fill-rule="nonzero"/></g><g clip-path="url(#266d793747)"><path fill="#b25b4f" d="M 16.988281 12.609375 C 16.265625 15.863281 16.625 31.515625 16.625 31.519531 C 16.625 32.320312 14.042969 32.382812 13.347656 32.058594 L 13.210938 14.78125 C 13.878906 13.714844 16.988281 12.609375 16.988281 12.609375 " fill-opacity="1" fill-rule="nonzero"/></g><path fill="#270a54" d="M 23.84375 15.292969 C 23.839844 15.292969 23.835938 15.292969 23.835938 15.292969 C 23.765625 15.289062 23.714844 15.230469 23.71875 15.160156 C 23.796875 14.054688 23.71875 13.097656 23.496094 12.464844 C 23.476562 12.398438 23.511719 12.328125 23.574219 12.308594 C 23.640625 12.285156 23.710938 12.320312 23.734375 12.382812 C 23.964844 13.046875 24.046875 14.039062 23.96875 15.179688 C 23.964844 15.242188 23.910156 15.292969 23.84375 15.292969 " fill-opacity="1" fill-rule="nonzero"/><path fill="#270a54" d="M 20.964844 22.320312 C 20.945312 22.320312 20.921875 22.3125 20.902344 22.300781 C 20.84375 22.265625 20.824219 22.191406 20.859375 22.132812 L 23.335938 18.066406 L 22.132812 17.199219 C 22.089844 17.167969 22.070312 17.113281 22.089844 17.0625 C 22.105469 17.011719 22.152344 16.976562 22.207031 16.976562 L 23.582031 16.976562 L 23.652344 16.015625 C 23.660156 15.945312 23.71875 15.894531 23.789062 15.902344 C 23.855469 15.90625 23.910156 15.964844 23.902344 16.03125 L 23.824219 17.109375 C 23.820312 17.171875 23.765625 17.222656 23.699219 17.222656 L 22.59375 17.222656 L 23.578125 17.933594 C 23.628906 17.972656 23.644531 18.042969 23.609375 18.097656 L 21.074219 22.257812 C 21.050781 22.296875 21.007812 22.320312 20.964844 22.320312 " fill-opacity="1" fill-rule="nonzero"/><path fill="#270a54" d="M 15.058594 14.910156 C 15.050781 14.910156 15.042969 14.910156 15.035156 14.90625 C 14.96875 14.894531 14.925781 14.832031 14.9375 14.761719 C 15.027344 14.273438 15.238281 13.660156 15.5 13.121094 C 15.53125 13.058594 15.605469 13.03125 15.667969 13.0625 C 15.730469 13.089844 15.753906 13.164062 15.726562 13.226562 C 15.472656 13.746094 15.269531 14.339844 15.183594 14.808594 C 15.171875 14.867188 15.117188 14.910156 15.058594 14.910156 " fill-opacity="1" fill-rule="nonzero"/><path fill="#270a54" d="M 14.984375 18.183594 C 14.945312 18.183594 14.90625 18.164062 14.878906 18.132812 C 14.839844 18.074219 14.855469 17.996094 14.910156 17.957031 L 15.625 17.464844 L 14.644531 17.289062 C 14.578125 17.277344 14.535156 17.214844 14.542969 17.148438 L 14.785156 15.546875 C 14.792969 15.480469 14.859375 15.433594 14.925781 15.445312 C 14.996094 15.453125 15.042969 15.515625 15.03125 15.585938 L 14.808594 17.066406 L 15.964844 17.273438 C 16.015625 17.285156 16.054688 17.320312 16.066406 17.371094 C 16.078125 17.417969 16.058594 17.46875 16.015625 17.496094 L 15.054688 18.160156 C 15.03125 18.175781 15.007812 18.183594 14.984375 18.183594 " fill-opacity="1" fill-rule="nonzero"/><path fill="#270a54" d="M 16.539062 22.402344 C 16.488281 22.402344 16.4375 22.371094 16.421875 22.320312 L 15.175781 18.976562 C 15.152344 18.910156 15.183594 18.839844 15.25 18.816406 C 15.316406 18.792969 15.386719 18.824219 15.410156 18.890625 L 16.65625 22.234375 C 16.679688 22.296875 16.644531 22.371094 16.582031 22.394531 C 16.566406 22.398438 16.550781 22.402344 16.539062 22.402344 " fill-opacity="1" fill-rule="nonzero"/><path fill="#270a54" d="M 21.0625 31.710938 C 20.996094 31.710938 20.9375 31.660156 20.9375 31.59375 C 20.621094 25.277344 20.777344 20.03125 21.410156 15.550781 C 21.421875 15.480469 21.484375 15.433594 21.550781 15.445312 C 21.621094 15.453125 21.667969 15.515625 21.660156 15.582031 C 21.027344 20.050781 20.871094 25.28125 21.1875 31.582031 C 21.1875 31.648438 21.136719 31.707031 21.066406 31.710938 C 21.066406 31.710938 21.0625 31.710938 21.0625 31.710938 " fill-opacity="1" fill-rule="nonzero"/><path fill="#270a54" d="M 21.746094 14.375 C 21.738281 14.375 21.726562 14.375 21.714844 14.371094 C 21.648438 14.351562 21.609375 14.285156 21.625 14.21875 L 22.203125 12.039062 C 22.222656 11.972656 22.289062 11.933594 22.355469 11.949219 C 22.425781 11.96875 22.464844 12.035156 22.445312 12.101562 L 21.867188 14.28125 C 21.851562 14.339844 21.800781 14.375 21.746094 14.375 " fill-opacity="1" fill-rule="nonzero"/><path fill="#270a54" d="M 16.625 31.640625 C 16.554688 31.640625 16.5 31.585938 16.5 31.519531 L 16.441406 19.269531 C 16.441406 19.203125 16.496094 19.148438 16.566406 19.148438 C 16.640625 19.144531 16.691406 19.203125 16.691406 19.269531 L 16.75 31.515625 C 16.75 31.585938 16.691406 31.640625 16.625 31.640625 " fill-opacity="1" fill-rule="nonzero"/><path fill="#270a54" d="M 16.59375 18.183594 C 16.59375 18.183594 16.589844 18.183594 16.589844 18.183594 C 16.519531 18.183594 16.464844 18.125 16.46875 18.058594 C 16.515625 16.097656 16.601562 13.914062 16.863281 12.585938 C 16.878906 12.515625 16.945312 12.472656 17.011719 12.484375 C 17.078125 12.5 17.125 12.5625 17.109375 12.632812 C 16.851562 13.945312 16.765625 16.113281 16.71875 18.0625 C 16.714844 18.128906 16.660156 18.183594 16.59375 18.183594 " fill-opacity="1" fill-rule="nonzero"/><g clip-path="url(#d08dc517bb)"><path fill="#b25b4f" d="M 25.539062 16.09375 C 25.859375 15.457031 26.617188 13.898438 26.617188 13.898438 C 28.539062 15.207031 29.410156 21.980469 29.4375 25.117188 C 29.4375 25.117188 26.179688 24.566406 25.902344 23.984375 L 24.753906 20.929688 C 24.511719 19.277344 24.785156 17.589844 25.539062 16.09375 " fill-opacity="1" fill-rule="nonzero"/></g><path fill="#ffffff" d="M 19.332031 28.917969 L 25.269531 28.183594 L 24.847656 19.523438 L 18.90625 20.257812 L 19.332031 28.917969 " fill-opacity="1" fill-rule="nonzero"/><path fill="#c7d3a5" d="M 19.953125 28.984375 L 25.890625 28.25 L 25.445312 19.40625 L 19.503906 20.140625 L 19.953125 28.984375 " fill-opacity="1" fill-rule="nonzero"/><path fill="#270a54" d="M 19.953125 29.105469 C 19.886719 29.105469 19.832031 29.054688 19.828125 28.988281 L 19.378906 20.148438 C 19.375 20.078125 19.429688 20.019531 19.5 20.015625 C 19.570312 20.015625 19.625 20.066406 19.628906 20.132812 L 20.078125 28.976562 C 20.082031 29.046875 20.027344 29.101562 19.957031 29.105469 C 19.957031 29.105469 19.953125 29.105469 19.953125 29.105469 " fill-opacity="1" fill-rule="nonzero"/><path fill="#270a54" d="M 19.503906 20.265625 C 19.441406 20.265625 19.390625 20.21875 19.382812 20.15625 C 19.371094 20.089844 19.421875 20.027344 19.488281 20.019531 L 23.363281 19.539062 C 23.429688 19.53125 23.496094 19.578125 23.503906 19.648438 C 23.511719 19.714844 23.464844 19.777344 23.394531 19.785156 L 19.519531 20.261719 C 19.515625 20.265625 19.511719 20.265625 19.503906 20.265625 " fill-opacity="1" fill-rule="nonzero"/><path fill="#270a54" d="M 24.207031 19.648438 C 24.144531 19.648438 24.089844 19.601562 24.082031 19.535156 C 24.078125 19.46875 24.128906 19.410156 24.195312 19.402344 L 25.433594 19.285156 C 25.5 19.277344 25.5625 19.328125 25.570312 19.394531 C 25.574219 19.464844 25.527344 19.523438 25.457031 19.53125 L 24.21875 19.648438 C 24.214844 19.648438 24.210938 19.648438 24.207031 19.648438 " fill-opacity="1" fill-rule="nonzero"/><g clip-path="url(#250dfa0ab1)"><path fill="#b25b4f" d="M 22.957031 24.074219 C 24.855469 23.726562 25.769531 23.285156 25.769531 23.285156 C 25.769531 23.285156 28.367188 22.398438 28.988281 23.339844 C 29.464844 24.066406 29.640625 26.082031 29.171875 26.679688 C 28.917969 27 22.957031 27.164062 22.957031 27.164062 L 22.554688 25.902344 C 22.554688 25.902344 22.089844 24.074219 22.957031 24.074219 " fill-opacity="1" fill-rule="nonzero"/></g><path fill="#ffcfcf" d="M 21.253906 26.351562 L 22.847656 26.15625 C 23.605469 25.835938 23.46875 24.46875 22.957031 24.074219 L 20.519531 24.40625 L 21.253906 26.351562 " fill-opacity="1" fill-rule="nonzero"/><path fill="#ffcfcf" d="M 21.175781 24.550781 L 22.554688 24.15625 L 22.203125 23.609375 C 22.035156 23.296875 21.648438 23.039062 21.265625 23.085938 L 20.117188 23.304688 C 18.734375 23.304688 18.84375 23.738281 19.796875 24.023438 L 21.175781 24.550781 " fill-opacity="1" fill-rule="nonzero"/><path fill="#ffcfcf" d="M 19.152344 23.425781 C 18.835938 23.554688 18.585938 23.714844 18.613281 24.023438 C 18.683594 24.847656 18.628906 25.636719 18.8125 26.457031 C 18.902344 26.691406 19.140625 26.832031 19.390625 26.804688 C 19.847656 26.757812 20.726562 26.621094 21.253906 26.351562 L 21.226562 23.648438 C 20.507812 23.894531 19.25 24.171875 19.152344 23.425781 " fill-opacity="1" fill-rule="nonzero"/><path fill="#270a54" d="M 19.648438 24.046875 C 19.4375 24.046875 19.253906 24.007812 19.121094 23.902344 C 18.992188 23.800781 18.925781 23.644531 18.917969 23.445312 C 18.914062 23.375 18.96875 23.316406 19.035156 23.316406 C 19.105469 23.308594 19.164062 23.367188 19.164062 23.433594 C 19.171875 23.5625 19.207031 23.652344 19.277344 23.707031 C 19.476562 23.867188 19.953125 23.785156 20.410156 23.703125 C 20.570312 23.675781 20.738281 23.644531 20.894531 23.625 C 20.960938 23.617188 21.027344 23.664062 21.035156 23.734375 C 21.042969 23.800781 20.996094 23.863281 20.925781 23.871094 C 20.773438 23.890625 20.613281 23.917969 20.453125 23.945312 C 20.167969 23.996094 19.890625 24.046875 19.648438 24.046875 " fill-opacity="1" fill-rule="nonzero"/><path fill="#270a54" d="M 19.226562 26.871094 C 19.171875 26.871094 19.117188 26.867188 19.066406 26.867188 C 18.996094 26.863281 18.941406 26.804688 18.945312 26.738281 C 18.949219 26.667969 19.011719 26.617188 19.074219 26.621094 C 19.730469 26.648438 20.667969 26.480469 21.203125 26.238281 C 21.265625 26.210938 21.339844 26.238281 21.371094 26.300781 C 21.398438 26.363281 21.371094 26.4375 21.308594 26.464844 C 20.773438 26.703125 19.90625 26.871094 19.226562 26.871094 " fill-opacity="1" fill-rule="nonzero"/><path fill="#270a54" d="M 22.957031 24.199219 C 22.894531 24.199219 22.839844 24.152344 22.832031 24.089844 C 22.824219 24.023438 22.875 23.960938 22.941406 23.953125 C 24.113281 23.808594 24.859375 23.574219 25.457031 23.382812 C 26.203125 23.144531 26.792969 22.960938 27.773438 23.066406 C 27.839844 23.074219 27.890625 23.136719 27.882812 23.207031 C 27.875 23.273438 27.8125 23.320312 27.746094 23.316406 C 26.816406 23.210938 26.277344 23.382812 25.535156 23.617188 C 24.925781 23.8125 24.167969 24.050781 22.972656 24.199219 C 22.96875 24.199219 22.960938 24.199219 22.957031 24.199219 " fill-opacity="1" fill-rule="nonzero"/><path fill="#270a54" d="M 22.957031 27.285156 C 22.890625 27.285156 22.835938 27.234375 22.832031 27.167969 C 22.828125 27.101562 22.882812 27.042969 22.953125 27.039062 L 26.730469 26.875 C 26.792969 26.867188 26.855469 26.921875 26.859375 26.992188 C 26.863281 27.058594 26.808594 27.117188 26.738281 27.121094 L 22.960938 27.285156 C 22.960938 27.285156 22.960938 27.285156 22.957031 27.285156 " fill-opacity="1" fill-rule="nonzero"/><path fill="#270a54" d="M 13.292969 25.335938 C 13.226562 25.335938 13.171875 25.28125 13.167969 25.214844 L 13.109375 17.695312 C 13.109375 17.628906 13.164062 17.574219 13.234375 17.574219 C 13.304688 17.574219 13.359375 17.628906 13.359375 17.695312 L 13.417969 25.214844 C 13.421875 25.28125 13.363281 25.335938 13.296875 25.335938 C 13.296875 25.335938 13.292969 25.335938 13.292969 25.335938 " fill-opacity="1" fill-rule="nonzero"/><g clip-path="url(#4ec46b3485)"><path fill="#270a54" d="M 13.347656 32.179688 C 13.28125 32.179688 13.222656 32.125 13.222656 32.058594 L 13.222656 26.808594 C 13.222656 26.738281 13.28125 26.683594 13.347656 26.683594 C 13.417969 26.683594 13.472656 26.738281 13.472656 26.808594 L 13.472656 32.058594 C 13.472656 32.125 13.417969 32.179688 13.347656 32.179688 " fill-opacity="1" fill-rule="nonzero"/></g></svg>