<svg xmlns="http://www.w3.org/2000/svg" xmlns:xlink="http://www.w3.org/1999/xlink" width="48" zoomAndPan="magnify" viewBox="0 0 36 36.000001" height="48" preserveAspectRatio="xMidYMid meet" version="1.0"><defs><filter x="0%" y="0%" width="100%" height="100%" id="1412921da5"><feColorMatrix values="0 0 0 0 1 0 0 0 0 1 0 0 0 0 1 0 0 0 1 0" color-interpolation-filters="sRGB"/></filter><clipPath id="200ebf8232"><path d="M 0.488281 0 L 35.511719 0 L 35.511719 35.027344 L 0.488281 35.027344 Z M 0.488281 0 " clip-rule="nonzero"/></clipPath><clipPath id="2b181b23d4"><path d="M 0.488281 0 L 18 0 L 18 35.027344 L 0.488281 35.027344 Z M 0.488281 0 " clip-rule="nonzero"/></clipPath><clipPath id="92468fe2a1"><path d="M 21.066406 0 L 35.511719 0 L 35.511719 15.761719 L 21.066406 15.761719 Z M 21.066406 0 " clip-rule="nonzero"/></clipPath><clipPath id="e6f55400f7"><path d="M 7 21 L 16 21 L 16 30.503906 L 7 30.503906 Z M 7 21 " clip-rule="nonzero"/></clipPath><clipPath id="ad519a7b7d"><path d="M 18 28 L 33.777344 28 L 33.777344 29 L 18 29 Z M 18 28 " clip-rule="nonzero"/></clipPath><clipPath id="ad6841bb99"><path d="M 18 28 L 33.777344 28 L 33.777344 30 L 18 30 Z M 18 28 " clip-rule="nonzero"/></clipPath><mask id="2c5cdd6a47"><g filter="url(#1412921da5)"><rect x="-3.6" width="43.2" fill="#000000" y="-3.6" height="43.200001" fill-opacity="0.27"/></g></mask><clipPath id="12216585f0"><path d="M 0.46875 0.0234375 L 15.644531 0.0234375 L 15.644531 1 L 0.46875 1 Z M 0.46875 0.0234375 " clip-rule="nonzero"/></clipPath><clipPath id="3c6fa8d712"><rect x="0" width="16" y="0" height="2"/></clipPath><clipPath id="1185853310"><path d="M 21 21 L 33.777344 21 L 33.777344 29 L 21 29 Z M 21 21 " clip-rule="nonzero"/></clipPath><clipPath id="95dc228b04"><path d="M 2.398438 17 L 9 17 L 9 23 L 2.398438 23 Z M 2.398438 17 " clip-rule="nonzero"/></clipPath><mask id="b1493652bb"><g filter="url(#1412921da5)"><rect x="-3.6" width="43.2" fill="#000000" y="-3.6" height="43.200001" fill-opacity="0.46"/></g></mask><clipPath id="50a800fdb5"><path d="M 0.761719 0.28125 L 8.699219 0.28125 L 8.699219 7.285156 L 0.761719 7.285156 Z M 0.761719 0.28125 " clip-rule="nonzero"/></clipPath><clipPath id="feef003f35"><rect x="0" width="9" y="0" height="8"/></clipPath><mask id="400cd62b29"><g filter="url(#1412921da5)"><rect x="-3.6" width="43.2" fill="#000000" y="-3.6" height="43.200001" fill-opacity="0.56"/></g></mask><clipPath id="4fe2e5ba49"><path d="M 0.472656 0.679688 L 1.40625 0.679688 L 1.40625 1.148438 L 0.472656 1.148438 Z M 0.472656 0.679688 " clip-rule="nonzero"/></clipPath><clipPath id="40b80e2cb2"><rect x="0" width="2" y="0" height="2"/></clipPath></defs><g clip-path="url(#200ebf8232)"><path fill="#ffffff" d="M 0.488281 0 L 35.511719 0 L 35.511719 35.027344 L 0.488281 35.027344 Z M 0.488281 0 " fill-opacity="1" fill-rule="nonzero"/><path fill="#ffffff" d="M 0.488281 0 L 35.511719 0 L 35.511719 35.027344 L 0.488281 35.027344 Z M 0.488281 0 " fill-opacity="1" fill-rule="nonzero"/></g><g clip-path="url(#2b181b23d4)"><path fill="#93f4fe" d="M 0.488281 0 L 18 0 L 18 35.027344 L 0.488281 35.027344 Z M 0.488281 0 " fill-opacity="1" fill-rule="nonzero"/></g><g clip-path="url(#92468fe2a1)"><path fill="#ffcf7b" d="M 21.066406 0 L 35.511719 0 L 35.511719 15.746094 L 21.066406 15.746094 Z M 21.066406 0 " fill-opacity="1" fill-rule="nonzero"/></g><path fill="#000000" d="M 10.421875 11.226562 C 10.382812 11.527344 10.347656 11.832031 10.390625 12.132812 C 10.402344 12.230469 10.425781 12.328125 10.472656 12.410156 C 10.523438 12.496094 10.601562 12.5625 10.699219 12.582031 C 10.785156 12.496094 10.910156 12.398438 10.960938 12.289062 C 11.03125 12.148438 11.03125 11.984375 11.011719 11.828125 C 10.996094 11.667969 10.960938 11.503906 10.867188 11.371094 C 10.773438 11.238281 10.578125 11.203125 10.421875 11.226562 Z M 10.421875 11.226562 " fill-opacity="1" fill-rule="nonzero"/><g clip-path="url(#e6f55400f7)"><path fill="#004aad" d="M 15.089844 29.023438 C 15.082031 27.839844 14.964844 26.523438 14.941406 25.789062 C 14.820312 22.210938 14.628906 21.832031 14.628906 21.832031 L 11.046875 22.175781 L 8.171875 22.527344 L 7.605469 30.378906 L 11.410156 30.390625 L 11.660156 28.179688 L 11.699219 30.390625 L 15.085938 30.398438 Z M 15.089844 29.023438 " fill-opacity="1" fill-rule="nonzero"/></g><path fill="#000000" d="M 11.660156 28.207031 C 11.652344 28.207031 11.640625 28.199219 11.636719 28.191406 C 11.632812 28.175781 11.636719 28.160156 11.652344 28.15625 L 13.175781 27.5 C 13.191406 27.492188 13.207031 27.5 13.210938 27.511719 C 13.21875 27.527344 13.210938 27.542969 13.199219 27.546875 L 11.671875 28.203125 C 11.667969 28.207031 11.664062 28.207031 11.660156 28.207031 Z M 11.660156 28.207031 " fill-opacity="1" fill-rule="nonzero"/><g clip-path="url(#ad519a7b7d)"><path fill="#ffffff" d="M 18.632812 28.128906 L 33.5625 28.128906 L 33.5625 28.9375 L 18.632812 28.9375 Z M 18.632812 28.128906 " fill-opacity="1" fill-rule="nonzero"/></g><g clip-path="url(#ad6841bb99)"><g mask="url(#2c5cdd6a47)"><g transform="matrix(1, 0, 0, 1, 18, 28)"><g clip-path="url(#3c6fa8d712)"><g clip-path="url(#12216585f0)"><path fill="#000000" d="M 0.632812 0.128906 L 15.5625 0.128906 L 15.5625 0.9375 L 0.632812 0.9375 Z M 0.632812 0.128906 " fill-opacity="1" fill-rule="nonzero"/></g></g></g></g></g><path fill="#000000" d="M 26.476562 16.835938 L 25.574219 21.921875 L 29.847656 22.332031 L 29.691406 17.6875 Z M 26.476562 16.835938 " fill-opacity="1" fill-rule="nonzero"/><path fill="#f8b498" d="M 27.992188 18.625 L 28.203125 21.78125 L 26.660156 21.8125 L 26.695312 19.730469 Z M 27.992188 18.625 " fill-opacity="1" fill-rule="nonzero"/><g clip-path="url(#1185853310)"><path fill="#b25b4f" d="M 26.167969 21.472656 L 25.984375 21.492188 C 25.542969 21.546875 25.015625 21.960938 24.855469 22.375 L 23.667969 25.160156 L 24.164062 23.09375 L 22.6875 22.796875 L 22.09375 25.632812 C 21.972656 26.054688 21.953125 26.5 22.03125 26.933594 C 22.117188 27.402344 22.519531 27.742188 22.996094 27.753906 C 23.53125 27.761719 24.035156 27.488281 24.316406 27.027344 L 25.269531 25.476562 L 26.339844 28.074219 L 31.84375 28.476562 C 32.453125 28.519531 33.007812 28.113281 33.144531 27.515625 C 33.265625 26.992188 33.191406 26.449219 32.9375 25.976562 L 31.265625 22.632812 C 31.191406 22.480469 31.089844 22.332031 30.972656 22.199219 C 30.535156 21.703125 29.890625 21.433594 29.230469 21.433594 L 28.378906 21.429688 Z M 26.167969 21.472656 " fill-opacity="1" fill-rule="nonzero"/></g><path fill="#000000" d="M 25.855469 17.25 C 25.855469 17.25 24.769531 16.402344 25.882812 15.703125 C 26.640625 15.230469 27.933594 15.859375 27.933594 15.859375 Z M 25.855469 17.25 " fill-opacity="1" fill-rule="nonzero"/><path fill="#000000" d="M 27.992188 15.871094 C 28.265625 15.929688 28.519531 16.027344 28.75 16.164062 C 28.984375 16.304688 29.179688 16.472656 29.339844 16.675781 C 29.496094 16.875 29.605469 17.089844 29.667969 17.324219 C 29.726562 17.554688 29.734375 17.785156 29.6875 18.015625 C 29.640625 18.242188 29.542969 18.449219 29.394531 18.640625 C 29.25 18.828125 29.0625 18.984375 28.835938 19.105469 C 28.613281 19.226562 28.363281 19.308594 28.097656 19.34375 C 27.828125 19.378906 27.558594 19.367188 27.285156 19.3125 C 27.015625 19.253906 26.761719 19.160156 26.527344 19.019531 C 26.296875 18.878906 26.101562 18.710938 25.941406 18.507812 C 25.78125 18.308594 25.671875 18.09375 25.613281 17.859375 C 25.550781 17.628906 25.546875 17.398438 25.59375 17.171875 C 25.640625 16.941406 25.734375 16.734375 25.882812 16.542969 C 26.03125 16.355469 26.21875 16.199219 26.441406 16.078125 C 26.667969 15.957031 26.914062 15.878906 27.183594 15.84375 C 27.453125 15.804688 27.722656 15.816406 27.992188 15.871094 Z M 27.992188 15.871094 " fill-opacity="1" fill-rule="nonzero"/><path fill="#000000" d="M 26.695312 19.730469 L 27.832031 19.59375 L 26.675781 20.828125 Z M 26.695312 19.730469 " fill-opacity="1" fill-rule="nonzero"/><path fill="#f8b498" d="M 28.347656 18.777344 C 27.832031 20.136719 26.699219 20.019531 26.699219 20.019531 C 25.734375 20.003906 25.265625 19.386719 25.175781 18.632812 C 25.105469 18.050781 25.492188 17.191406 25.699219 16.703125 C 25.769531 16.535156 25.890625 16.394531 26.046875 16.308594 C 27.402344 15.570312 29.171875 16.613281 28.347656 18.777344 Z M 28.347656 18.777344 " fill-opacity="1" fill-rule="nonzero"/><path fill="#000000" d="M 25.855469 18.539062 L 25.726562 18.488281 C 25.683594 18.464844 25.667969 18.414062 25.6875 18.367188 L 25.820312 18.152344 C 25.832031 18.136719 25.851562 18.132812 25.867188 18.140625 C 25.882812 18.152344 25.886719 18.171875 25.875 18.1875 L 25.746094 18.398438 C 25.742188 18.410156 25.746094 18.421875 25.753906 18.429688 L 25.882812 18.480469 C 25.898438 18.488281 25.90625 18.507812 25.898438 18.523438 C 25.894531 18.535156 25.882812 18.542969 25.871094 18.542969 C 25.863281 18.542969 25.859375 18.542969 25.855469 18.539062 Z M 25.855469 18.539062 " fill-opacity="1" fill-rule="nonzero"/><path fill="#000000" d="M 26.738281 18.054688 C 26.738281 18.144531 26.695312 18.1875 26.605469 18.1875 C 26.515625 18.1875 26.472656 18.144531 26.472656 18.054688 C 26.472656 17.964844 26.515625 17.921875 26.605469 17.921875 C 26.695312 17.921875 26.738281 17.964844 26.738281 18.054688 Z M 26.738281 18.054688 " fill-opacity="1" fill-rule="nonzero"/><path fill="#000000" d="M 25.59375 17.714844 C 25.523438 17.703125 25.460938 17.746094 25.449219 17.8125 C 25.4375 17.882812 25.484375 17.945312 25.550781 17.957031 C 25.617188 17.96875 25.683594 17.921875 25.695312 17.855469 C 25.703125 17.789062 25.660156 17.722656 25.59375 17.714844 Z M 25.59375 17.714844 " fill-opacity="1" fill-rule="nonzero"/><path fill="#000000" d="M 25.667969 18.824219 C 25.652344 18.816406 25.648438 18.792969 25.660156 18.78125 C 25.667969 18.765625 25.6875 18.761719 25.703125 18.769531 C 25.707031 18.773438 26.0625 19 26.414062 18.792969 C 26.429688 18.785156 26.449219 18.789062 26.460938 18.804688 C 26.46875 18.820312 26.464844 18.839844 26.449219 18.851562 C 26.324219 18.921875 26.203125 18.945312 26.09375 18.945312 C 25.855469 18.945312 25.679688 18.832031 25.667969 18.824219 Z M 25.667969 18.824219 " fill-opacity="1" fill-rule="nonzero"/><path fill="#000000" d="M 25.632812 17.007812 C 25.457031 17.007812 25.347656 17.097656 25.292969 17.15625 C 25.265625 17.183594 25.261719 17.226562 25.277344 17.261719 C 25.296875 17.308594 25.347656 17.332031 25.394531 17.320312 C 25.476562 17.296875 25.566406 17.300781 25.710938 17.300781 C 25.898438 17.300781 25.875 17.148438 25.875 17.148438 C 25.875 17.148438 25.855469 17.003906 25.632812 17.007812 Z M 25.632812 17.007812 " fill-opacity="1" fill-rule="nonzero"/><path fill="#000000" d="M 26.863281 17.214844 C 27.078125 17.277344 27.273438 17.472656 27.320312 17.546875 C 27.34375 17.585938 27.339844 17.628906 27.308594 17.65625 C 27.269531 17.691406 27.199219 17.695312 27.144531 17.667969 C 27.050781 17.621094 26.847656 17.515625 26.667969 17.464844 C 26.4375 17.402344 26.519531 17.261719 26.519531 17.261719 C 26.519531 17.261719 26.585938 17.132812 26.863281 17.214844 Z M 26.863281 17.214844 " fill-opacity="1" fill-rule="nonzero"/><path fill="#000000" d="M 28.980469 17.425781 C 26.136719 17.109375 26.550781 15.980469 26.550781 15.980469 C 29.417969 15.824219 28.980469 17.425781 28.980469 17.425781 Z M 28.980469 17.425781 " fill-opacity="1" fill-rule="nonzero"/><path fill="#000000" d="M 29.539062 17.859375 L 28.019531 18.765625 L 28.144531 17.042969 Z M 29.539062 17.859375 " fill-opacity="1" fill-rule="nonzero"/><path fill="#f8b498" d="M 28.765625 18.347656 C 28.464844 18.183594 28.082031 18.296875 27.917969 18.597656 C 27.753906 18.902344 27.867188 19.28125 28.171875 19.445312 C 28.472656 19.613281 28.855469 19.5 29.019531 19.195312 C 29.183594 18.890625 29.070312 18.511719 28.765625 18.347656 Z M 28.765625 18.347656 " fill-opacity="1" fill-rule="nonzero"/><path fill="#f8b498" d="M 28.21875 18.992188 C 28.394531 18.550781 28.78125 18.773438 28.78125 18.773438 " fill-opacity="1" fill-rule="nonzero"/><path fill="#f8b498" d="M 26.910156 22.261719 C 25.710938 22.261719 26.167969 21.472656 26.167969 21.472656 L 26.589844 21.402344 L 28.652344 21.421875 C 28.621094 21.550781 28.105469 22.261719 26.910156 22.261719 Z M 26.910156 22.261719 " fill-opacity="1" fill-rule="nonzero"/><path fill="#f8b498" d="M 27.777344 26.828125 L 26.230469 27.042969 L 26.261719 27.816406 L 27.808594 28.132812 C 27.808594 28.132812 27.785156 27.09375 27.777344 26.828125 Z M 27.777344 26.828125 " fill-opacity="1" fill-rule="nonzero"/><path fill="#000000" d="M 25.238281 25.488281 C 25.234375 25.480469 25.011719 24.847656 25.136719 24.136719 C 25.257812 23.433594 25.363281 23.117188 25.363281 23.117188 C 25.371094 23.097656 25.390625 23.089844 25.40625 23.09375 C 25.421875 23.101562 25.433594 23.121094 25.425781 23.136719 C 25.425781 23.140625 25.324219 23.453125 25.199219 24.148438 C 25.078125 24.839844 25.296875 25.460938 25.300781 25.464844 C 25.304688 25.484375 25.296875 25.5 25.28125 25.507812 C 25.277344 25.507812 25.273438 25.507812 25.269531 25.507812 C 25.253906 25.507812 25.242188 25.5 25.238281 25.488281 Z M 25.238281 25.488281 " fill-opacity="1" fill-rule="nonzero"/><path fill="#000000" d="M 25.835938 25.316406 L 25.960938 25.074219 L 26.226562 25.203125 L 26.109375 25.445312 Z M 25.835938 25.316406 " fill-opacity="1" fill-rule="nonzero"/><path fill="#000000" d="M 24.539062 28.3125 L 24.5 28.464844 C 24.492188 28.5 24.515625 28.507812 24.535156 28.480469 L 24.625 28.347656 C 24.609375 28.308594 24.578125 28.292969 24.539062 28.3125 Z M 24.539062 28.3125 " fill-opacity="1" fill-rule="nonzero"/><path fill="#004aad" d="M 25.847656 25.292969 L 26.121094 25.425781 L 24.96875 27.875 L 24.960938 27.886719 L 24.617188 28.363281 C 24.601562 28.328125 24.570312 28.316406 24.53125 28.328125 L 24.667969 27.765625 L 24.664062 27.765625 L 24.671875 27.746094 Z M 25.847656 25.292969 " fill-opacity="1" fill-rule="nonzero"/><path fill="#f8b498" d="M 25.949219 25.097656 L 25.980469 25.035156 C 26.023438 24.949219 26.117188 24.910156 26.191406 24.945312 C 26.261719 24.980469 26.285156 25.074219 26.246094 25.160156 L 26.214844 25.226562 Z M 25.949219 25.097656 " fill-opacity="1" fill-rule="nonzero"/><path fill="#f8b498" d="M 23.855469 28.234375 C 23.917969 28.257812 23.988281 28.246094 24.039062 28.199219 L 24.476562 27.808594 C 24.675781 27.628906 24.996094 27.503906 25.257812 27.632812 C 25.335938 27.675781 25.402344 27.742188 25.472656 27.792969 C 25.65625 27.925781 25.878906 27.914062 26.089844 27.863281 C 26.238281 27.832031 26.382812 27.769531 26.511719 27.6875 C 26.550781 27.660156 26.585938 27.632812 26.625 27.605469 C 26.628906 27.597656 26.660156 27.578125 26.660156 27.570312 C 26.660156 27.570312 26.683594 27.015625 26.683594 27.015625 L 25.066406 26.992188 C 24.765625 26.988281 24.480469 27.117188 24.285156 27.34375 L 23.777344 27.933594 C 23.691406 28.03125 23.734375 28.1875 23.855469 28.234375 Z M 23.855469 28.234375 " fill-opacity="1" fill-rule="nonzero"/><path fill="#000000" d="M 27.792969 26.828125 C 27.789062 26.808594 27.800781 26.792969 27.816406 26.789062 L 30.695312 26.265625 L 29.816406 24.410156 C 29.808594 24.394531 29.816406 24.375 29.832031 24.367188 C 29.851562 24.359375 29.867188 24.363281 29.875 24.382812 L 30.769531 26.273438 C 30.773438 26.285156 30.773438 26.292969 30.769531 26.304688 C 30.765625 26.3125 30.757812 26.320312 30.746094 26.320312 L 27.828125 26.851562 C 27.828125 26.855469 27.824219 26.855469 27.824219 26.855469 C 27.808594 26.855469 27.792969 26.84375 27.792969 26.828125 Z M 27.792969 26.828125 " fill-opacity="1" fill-rule="nonzero"/><path fill="#004aad" d="M 18.3125 22.691406 L 25.507812 22.691406 L 27.207031 27.976562 L 20.015625 27.976562 Z M 18.3125 22.691406 " fill-opacity="1" fill-rule="nonzero"/><path fill="#004aad" d="M 20.015625 27.847656 L 29.539062 27.847656 L 29.539062 28.523438 L 20.015625 28.523438 Z M 20.015625 27.847656 " fill-opacity="1" fill-rule="nonzero"/><path fill="#ffffff" d="M 22.878906 25.953125 C 22.878906 26.082031 22.832031 26.191406 22.742188 26.285156 C 22.648438 26.378906 22.539062 26.421875 22.410156 26.421875 C 22.277344 26.421875 22.167969 26.378906 22.074219 26.285156 C 21.984375 26.191406 21.9375 26.082031 21.9375 25.953125 C 21.9375 25.820312 21.984375 25.710938 22.074219 25.617188 C 22.167969 25.527344 22.277344 25.480469 22.410156 25.480469 C 22.539062 25.480469 22.648438 25.527344 22.742188 25.617188 C 22.832031 25.710938 22.878906 25.820312 22.878906 25.953125 Z M 22.878906 25.953125 " fill-opacity="1" fill-rule="nonzero"/><g clip-path="url(#95dc228b04)"><path fill="#f8b498" d="M 8.574219 17.28125 C 8.574219 17.28125 4.992188 22.066406 4.992188 22.066406 C 4.195312 23.167969 2.433594 21.980469 3.171875 20.828125 L 5.277344 17.683594 Z M 8.574219 17.28125 " fill-opacity="1" fill-rule="nonzero"/></g><path fill="#b25b4f" d="M 7.394531 20.359375 L 4.183594 18.246094 C 4.984375 17.007812 7.011719 13.578125 8.339844 14.015625 C 11.953125 15.4375 7.988281 19.382812 7.394531 20.359375 Z M 7.394531 20.359375 " fill-opacity="1" fill-rule="nonzero"/><path fill="#b25b4f" d="M 14.441406 17.875 L 16.019531 17.511719 C 15.929688 14.128906 13.628906 13.980469 13.628906 13.980469 Z M 14.441406 17.875 " fill-opacity="1" fill-rule="nonzero"/><path fill="#b25b4f" d="M 7.164062 16.171875 L 8.078125 22.796875 L 13.75 22.796875 C 14.265625 20.558594 16.113281 14.660156 13.929688 14.039062 C 12 13.492188 10.578125 13.492188 8.007812 13.964844 C 7.203125 14.015625 7.398438 15.640625 7.164062 16.171875 Z M 7.164062 16.171875 " fill-opacity="1" fill-rule="nonzero"/><path fill="#000000" d="M 7.878906 19.996094 L 7.269531 17.410156 C 7.265625 17.394531 7.273438 17.382812 7.289062 17.378906 C 7.304688 17.375 7.316406 17.382812 7.320312 17.398438 L 7.933594 19.984375 C 7.9375 20 7.929688 20.015625 7.914062 20.019531 C 7.910156 20.019531 7.910156 20.019531 7.90625 20.019531 C 7.894531 20.019531 7.882812 20.011719 7.878906 19.996094 Z M 7.878906 19.996094 " fill-opacity="1" fill-rule="nonzero"/><path fill="#000000" d="M 14.5 19.132812 C 14.484375 19.132812 14.476562 19.117188 14.476562 19.101562 L 14.84375 16.515625 C 14.847656 16.5 14.859375 16.488281 14.875 16.492188 C 14.890625 16.496094 14.902344 16.507812 14.898438 16.523438 L 14.53125 19.109375 C 14.53125 19.125 14.519531 19.132812 14.503906 19.132812 C 14.503906 19.132812 14.5 19.132812 14.5 19.132812 Z M 14.5 19.132812 " fill-opacity="1" fill-rule="nonzero"/><path fill="#f8b498" d="M 10.671875 20.25 L 12.71875 20.320312 L 13.628906 18.390625 C 11.289062 17.457031 10.394531 19.039062 10.394531 19.039062 Z M 10.671875 20.25 " fill-opacity="1" fill-rule="nonzero"/><path fill="#f8b498" d="M 10.773438 20.214844 L 4.472656 22.460938 L 4.105469 20.117188 L 10.539062 19.011719 Z M 10.773438 20.214844 " fill-opacity="1" fill-rule="nonzero"/><path fill="#000000" d="M 4.804688 19.996094 C 4.804688 19.980469 4.8125 19.964844 4.828125 19.964844 L 6.367188 19.699219 C 6.382812 19.699219 6.394531 19.707031 6.398438 19.722656 C 6.402344 19.738281 6.390625 19.753906 6.375 19.753906 L 4.839844 20.019531 C 4.835938 20.019531 4.835938 20.019531 4.832031 20.019531 C 4.820312 20.019531 4.808594 20.007812 4.804688 19.996094 Z M 4.804688 19.996094 " fill-opacity="1" fill-rule="nonzero"/><path fill="#ffffff" d="M 19.550781 17.375 C 17.652344 16.730469 13.003906 17.511719 13.003906 17.511719 L 10.414062 23.59375 L 10.839844 24.066406 Z M 19.550781 17.375 " fill-opacity="1" fill-rule="nonzero"/><path fill="#000000" d="M 16.796875 22.675781 C 16.40625 23.433594 15.332031 23.441406 15.332031 23.441406 L 18.304688 17.542969 L 19.550781 17.375 Z M 16.796875 22.675781 " fill-opacity="1" fill-rule="nonzero"/><path fill="#004aad" d="M 15.535156 23.414062 L 10.839844 24.066406 L 13.367188 17.972656 L 18.542969 17.511719 Z M 15.535156 23.414062 " fill-opacity="1" fill-rule="nonzero"/><g mask="url(#b1493652bb)"><g transform="matrix(1, 0, 0, 1, 10, 17)"><g clip-path="url(#feef003f35)"><g clip-path="url(#50a800fdb5)"><path fill="#000000" d="M 5.535156 6.414062 L 0.839844 7.066406 L 3.367188 0.972656 L 8.542969 0.511719 Z M 5.535156 6.414062 " fill-opacity="1" fill-rule="nonzero"/></g></g></g></g><path fill="#ffffff" d="M 17.191406 17.230469 L 18.347656 14.570312 L 18.941406 14.570312 L 19.550781 17.375 Z M 17.191406 17.230469 " fill-opacity="1" fill-rule="nonzero"/><path fill="#f8b498" d="M 17.5 21.308594 L 16.222656 20.375 C 16.148438 20.320312 16.125 20.21875 16.167969 20.136719 C 16.214844 20.046875 16.324219 20.011719 16.414062 20.054688 L 17.363281 20.507812 L 16.253906 19.699219 C 16.183594 19.648438 16.160156 19.554688 16.199219 19.480469 C 16.242188 19.390625 16.347656 19.355469 16.4375 19.402344 L 17.527344 19.96875 L 16.3125 19.015625 C 16.230469 18.953125 16.207031 18.835938 16.261719 18.742188 C 16.324219 18.640625 16.457031 18.609375 16.558594 18.675781 L 17.867188 19.539062 L 17 18.703125 C 16.9375 18.644531 16.9375 18.542969 17 18.480469 C 17.054688 18.429688 17.136719 18.421875 17.199219 18.464844 L 18.660156 19.492188 C 18.660156 19.492188 19.222656 19.964844 18.640625 20.855469 C 18.058594 21.746094 17.367188 21.578125 17.367188 21.578125 Z M 17.5 21.308594 " fill-opacity="1" fill-rule="nonzero"/><path fill="#000000" d="M 13.738281 10.617188 C 15.058594 9.34375 13.632812 8.820312 13.632812 8.820312 Z M 13.738281 10.617188 " fill-opacity="1" fill-rule="nonzero"/><path fill="#f8b498" d="M 11.097656 10.910156 L 10.285156 14.109375 L 12.1875 14.171875 L 12.496094 12.410156 Z M 11.097656 10.910156 " fill-opacity="1" fill-rule="nonzero"/><path fill="#000000" d="M 12.460938 12.609375 L 10.984375 11.851562 C 10.941406 13.042969 12.308594 13.484375 12.308594 13.484375 Z M 12.460938 12.609375 " fill-opacity="1" fill-rule="nonzero"/><path fill="#f8b498" d="M 10.609375 10.785156 C 10.550781 12.488281 11.539062 12.710938 11.539062 12.710938 C 12.40625 13.105469 13.070312 12.796875 13.464844 12.15625 C 13.773438 11.652344 13.847656 10.402344 13.863281 9.894531 C 13.867188 9.738281 13.730469 9.285156 13.644531 9.160156 C 12.757812 7.878906 10.695312 8.246094 10.609375 10.785156 Z M 10.609375 10.785156 " fill-opacity="1" fill-rule="nonzero"/><path fill="#000000" d="M 13.363281 11.089844 C 13.429688 11.089844 13.488281 11.140625 13.488281 11.210938 C 13.488281 11.277344 13.4375 11.335938 13.367188 11.335938 C 13.300781 11.335938 13.242188 11.285156 13.242188 11.214844 C 13.242188 11.148438 13.292969 11.089844 13.363281 11.089844 Z M 13.363281 11.089844 " fill-opacity="1" fill-rule="nonzero"/><path fill="#000000" d="M 12.296875 10.859375 C 12.363281 10.859375 12.421875 10.914062 12.421875 10.980469 C 12.425781 11.050781 12.371094 11.105469 12.300781 11.105469 C 12.234375 11.109375 12.179688 11.054688 12.175781 10.988281 C 12.175781 10.917969 12.230469 10.863281 12.296875 10.859375 Z M 12.296875 10.859375 " fill-opacity="1" fill-rule="nonzero"/><path fill="#000000" d="M 12.75 11.695312 C 12.75 11.675781 12.765625 11.660156 12.785156 11.65625 L 12.949219 11.652344 L 12.917969 11.253906 C 12.917969 11.234375 12.933594 11.21875 12.953125 11.21875 C 12.972656 11.214844 12.988281 11.230469 12.988281 11.25 L 13.023438 11.683594 C 13.023438 11.695312 13.023438 11.703125 13.015625 11.710938 C 13.007812 11.71875 13 11.722656 12.988281 11.722656 L 12.785156 11.730469 C 12.765625 11.730469 12.75 11.714844 12.75 11.695312 Z M 12.75 11.695312 " fill-opacity="1" fill-rule="nonzero"/><path fill="#000000" d="M 12.53125 10.128906 C 12.179688 10.050781 11.957031 10.152344 11.816406 10.222656 C 11.75 10.257812 11.707031 10.328125 11.726562 10.402344 C 11.75 10.480469 11.828125 10.523438 11.90625 10.503906 C 12.117188 10.453125 12.335938 10.457031 12.488281 10.46875 C 12.589844 10.476562 12.671875 10.394531 12.671875 10.292969 C 12.667969 10.214844 12.609375 10.148438 12.53125 10.128906 Z M 12.53125 10.128906 " fill-opacity="1" fill-rule="nonzero"/><path fill="#000000" d="M 13.328125 10.3125 C 13.566406 10.34375 13.671875 10.507812 13.738281 10.617188 C 13.769531 10.667969 13.777344 10.746094 13.742188 10.808594 C 13.707031 10.875 13.648438 10.890625 13.605469 10.851562 C 13.492188 10.738281 13.355469 10.675781 13.261719 10.640625 C 13.199219 10.617188 13.167969 10.515625 13.199219 10.421875 C 13.222656 10.347656 13.277344 10.304688 13.328125 10.3125 Z M 13.328125 10.3125 " fill-opacity="1" fill-rule="nonzero"/><path fill="#000000" d="M 10.175781 9.640625 C 10.257812 9.183594 10.519531 8.777344 10.960938 8.523438 C 11.523438 8.199219 12.257812 8.125 12.914062 8.203125 C 13.460938 8.265625 13.925781 8.539062 14.0625 9.035156 C 14.265625 9.773438 13.617188 10.007812 13.292969 9.992188 C 13.128906 9.980469 12.972656 9.929688 12.832031 9.855469 C 12.324219 9.585938 11.582031 9.464844 11.582031 9.464844 C 11.480469 10.632812 10.597656 11.183594 10.597656 11.183594 C 10.597656 11.183594 10.074219 10.1875 10.175781 9.640625 Z M 10.175781 9.640625 " fill-opacity="1" fill-rule="nonzero"/><path fill="#f8b498" d="M 10.523438 10.125 C 10.855469 10.105469 11.140625 10.355469 11.160156 10.6875 C 11.179688 11.019531 10.929688 11.304688 10.597656 11.324219 C 10.265625 11.34375 9.980469 11.089844 9.960938 10.757812 C 9.941406 10.429688 10.195312 10.144531 10.523438 10.125 Z M 10.523438 10.125 " fill-opacity="1" fill-rule="nonzero"/><path fill="#000000" d="M 10.761719 10.96875 C 10.761719 10.824219 10.722656 10.710938 10.640625 10.636719 C 10.519531 10.519531 10.339844 10.523438 10.339844 10.523438 C 10.324219 10.527344 10.304688 10.511719 10.304688 10.492188 C 10.300781 10.472656 10.316406 10.457031 10.335938 10.453125 C 10.34375 10.453125 10.546875 10.445312 10.691406 10.585938 C 10.785156 10.675781 10.832031 10.804688 10.832031 10.96875 C 10.832031 10.988281 10.816406 11.003906 10.796875 11.003906 C 10.777344 11.003906 10.761719 10.988281 10.761719 10.96875 Z M 10.761719 10.96875 " fill-opacity="1" fill-rule="nonzero"/><path fill="#f8b498" d="M 13.144531 13.96875 C 13.144531 13.96875 12.65625 15.117188 11.390625 15.0625 C 10.121094 15.003906 9.632812 13.714844 9.632812 13.714844 C 11.589844 13.390625 13.144531 13.96875 13.144531 13.96875 Z M 13.144531 13.96875 " fill-opacity="1" fill-rule="nonzero"/><path fill="#000000" d="M 12.144531 11.992188 C 12.136719 11.976562 12.140625 11.953125 12.160156 11.941406 C 12.175781 11.933594 12.199219 11.9375 12.207031 11.957031 C 12.390625 12.269531 12.871094 12.148438 12.878906 12.144531 C 12.894531 12.140625 12.917969 12.152344 12.921875 12.171875 C 12.925781 12.191406 12.914062 12.210938 12.894531 12.214844 C 12.886719 12.21875 12.785156 12.242188 12.65625 12.242188 C 12.488281 12.242188 12.265625 12.199219 12.144531 11.992188 Z M 12.144531 11.992188 " fill-opacity="1" fill-rule="nonzero"/><path fill="#ffffff" d="M 10.414062 13.59375 L 11.4375 14.679688 L 12.273438 13.679688 L 13.253906 13.820312 L 12.671875 16.046875 L 11.449219 15.179688 L 10.160156 15.816406 L 9.441406 13.734375 Z M 10.414062 13.59375 " fill-opacity="1" fill-rule="nonzero"/><path fill="#000000" d="M 11.449219 18.234375 C 11.433594 18.234375 11.417969 18.222656 11.417969 18.207031 L 11.417969 15.242188 C 11.417969 15.226562 11.433594 15.214844 11.449219 15.214844 C 11.464844 15.214844 11.476562 15.226562 11.476562 15.242188 L 11.476562 18.207031 C 11.476562 18.222656 11.464844 18.234375 11.449219 18.234375 Z M 11.449219 18.234375 " fill-opacity="1" fill-rule="nonzero"/><g mask="url(#400cd62b29)"><g transform="matrix(1, 0, 0, 1, 25, 18)"><g clip-path="url(#40b80e2cb2)"><g clip-path="url(#4fe2e5ba49)"><path fill="#b25b4f" d="M 0.753906 0.90625 C 0.789062 0.957031 0.847656 0.980469 0.90625 0.992188 C 1.03125 1.019531 1.164062 1.011719 1.273438 0.933594 C 1.296875 0.917969 1.320312 0.894531 1.324219 0.859375 C 1.328125 0.828125 1.3125 0.796875 1.289062 0.78125 C 1.265625 0.761719 1.234375 0.757812 1.207031 0.753906 C 1.09375 0.742188 0.976562 0.765625 0.859375 0.757812 C 0.824219 0.753906 0.769531 0.726562 0.742188 0.761719 C 0.714844 0.800781 0.730469 0.871094 0.753906 0.90625 Z M 0.753906 0.90625 " fill-opacity="1" fill-rule="nonzero"/></g></g></g></g></svg>