<svg xmlns="http://www.w3.org/2000/svg" xmlns:xlink="http://www.w3.org/1999/xlink" width="48" zoomAndPan="magnify" viewBox="0 0 36 36.000001" height="48" preserveAspectRatio="xMidYMid meet" version="1.0"><defs><clipPath id="aefe469dd3"><path d="M 0.488281 0 L 35.511719 0 L 35.511719 35.027344 L 0.488281 35.027344 Z M 0.488281 0 " clip-rule="nonzero"/></clipPath><clipPath id="e51908bd40"><path d="M 0.488281 0 L 18 0 L 18 35.027344 L 0.488281 35.027344 Z M 0.488281 0 " clip-rule="nonzero"/></clipPath><clipPath id="0d338cd482"><path d="M 21.066406 0 L 35.511719 0 L 35.511719 15.761719 L 21.066406 15.761719 Z M 21.066406 0 " clip-rule="nonzero"/></clipPath><clipPath id="0ea3c0a527"><path d="M 5.921875 5.507812 L 30.734375 5.507812 L 30.734375 31.777344 L 5.921875 31.777344 Z M 5.921875 5.507812 " clip-rule="nonzero"/></clipPath><clipPath id="66bfbd1873"><path d="M 16 11 L 30.734375 11 L 30.734375 26 L 16 26 Z M 16 11 " clip-rule="nonzero"/></clipPath><clipPath id="4e2b55a3cd"><path d="M 16 11 L 30.734375 11 L 30.734375 23 L 16 23 Z M 16 11 " clip-rule="nonzero"/></clipPath></defs><g clip-path="url(#aefe469dd3)"><path fill="#ffffff" d="M 0.488281 0 L 35.511719 0 L 35.511719 35.027344 L 0.488281 35.027344 Z M 0.488281 0 " fill-opacity="1" fill-rule="nonzero"/><path fill="#ffffff" d="M 0.488281 0 L 35.511719 0 L 35.511719 35.027344 L 0.488281 35.027344 Z M 0.488281 0 " fill-opacity="1" fill-rule="nonzero"/></g><g clip-path="url(#e51908bd40)"><path fill="#93f4fe" d="M 0.488281 0 L 18 0 L 18 35.027344 L 0.488281 35.027344 Z M 0.488281 0 " fill-opacity="1" fill-rule="nonzero"/></g><g clip-path="url(#0d338cd482)"><path fill="#ffcf7b" d="M 21.066406 0 L 35.511719 0 L 35.511719 15.746094 L 21.066406 15.746094 Z M 21.066406 0 " fill-opacity="1" fill-rule="nonzero"/></g><g clip-path="url(#0ea3c0a527)"><path fill="#242222" d="M 28.363281 24.339844 C 28.425781 24.285156 28.488281 24.222656 28.546875 24.164062 C 29.894531 22.796875 30.730469 20.914062 30.730469 18.828125 C 30.730469 16.746094 29.894531 14.863281 28.546875 13.496094 C 27.199219 12.132812 25.339844 11.289062 23.28125 11.289062 C 21.226562 11.289062 19.363281 12.132812 18.015625 13.496094 C 17.675781 13.84375 17.367188 14.222656 17.097656 14.628906 C 16.675781 14.46875 16.242188 14.339844 15.796875 14.25 C 15.265625 14.140625 14.71875 14.085938 14.15625 14.085938 C 12.097656 14.085938 10.214844 14.84375 8.761719 16.101562 C 7.296875 17.367188 6.269531 19.148438 5.949219 21.167969 C 5.921875 21.304688 5.976562 21.453125 6.101562 21.53125 C 7.1875 22.226562 8.453125 22.78125 9.84375 23.160156 C 11.183594 23.519531 12.636719 23.71875 14.15625 23.71875 C 14.738281 23.71875 15.320312 23.691406 15.890625 23.632812 C 16.394531 23.582031 16.886719 23.507812 17.367188 23.414062 C 17.570312 23.675781 17.785156 23.929688 18.015625 24.164062 C 18.078125 24.222656 18.136719 24.285156 18.199219 24.34375 L 16.65625 30.171875 C 16.574219 30.464844 16.886719 30.726562 17.15625 30.570312 L 19.3125 29.320312 L 20.554688 31.480469 C 20.699219 31.757812 21.109375 31.714844 21.191406 31.410156 L 22.53125 26.335938 C 22.777344 26.359375 23.03125 26.371094 23.28125 26.371094 C 23.535156 26.371094 23.785156 26.359375 24.03125 26.335938 L 25.375 31.410156 C 25.457031 31.714844 25.867188 31.757812 26.011719 31.480469 L 27.253906 29.320312 L 29.40625 30.570312 C 29.675781 30.726562 29.992188 30.464844 29.90625 30.171875 L 28.363281 24.34375 Z M 14.15625 5.519531 C 15.058594 5.519531 15.871094 5.890625 16.460938 6.488281 C 17.050781 7.085938 17.417969 7.910156 17.417969 8.824219 C 17.417969 9.734375 17.050781 10.558594 16.460938 11.15625 C 15.871094 11.753906 15.058594 12.125 14.15625 12.125 C 13.257812 12.125 12.441406 11.753906 11.851562 11.15625 C 11.261719 10.558594 10.898438 9.734375 10.898438 8.824219 C 10.898438 7.910156 11.261719 7.085938 11.851562 6.488281 C 12.441406 5.890625 13.257812 5.519531 14.15625 5.519531 Z M 14.15625 5.519531 " fill-opacity="1" fill-rule="evenodd"/></g><path fill="#f0ba40" d="M 23.582031 15.675781 L 24.359375 17.597656 L 26.402344 17.75 C 26.71875 17.773438 26.835938 18.175781 26.589844 18.371094 L 25.035156 19.703125 L 25.523438 21.722656 C 25.597656 22.03125 25.257812 22.261719 25.003906 22.09375 L 23.265625 21.003906 L 21.523438 22.097656 C 21.261719 22.261719 20.9375 22.019531 21.011719 21.722656 L 21.496094 19.703125 L 19.933594 18.363281 C 19.695312 18.160156 19.828125 17.773438 20.128906 17.75 L 22.175781 17.597656 L 22.949219 15.675781 C 23.066406 15.386719 23.46875 15.390625 23.582031 15.675781 Z M 26.949219 15.074219 C 26.007812 14.121094 24.703125 13.53125 23.265625 13.53125 C 21.828125 13.53125 20.527344 14.121094 19.585938 15.074219 C 18.640625 16.03125 18.058594 17.347656 18.058594 18.804688 C 18.058594 20.261719 18.640625 21.578125 19.585938 22.535156 C 20.527344 23.488281 21.828125 24.078125 23.265625 24.078125 C 24.703125 24.078125 26.007812 23.488281 26.949219 22.535156 C 27.890625 21.578125 28.472656 20.261719 28.472656 18.804688 C 28.472656 17.347656 27.890625 16.03125 26.949219 15.074219 Z M 26.949219 15.074219 " fill-opacity="1" fill-rule="evenodd"/><path fill="#ffd47f" d="M 23.582031 15.675781 L 24.359375 17.597656 L 26.402344 17.75 C 26.71875 17.773438 26.835938 18.175781 26.589844 18.371094 L 25.035156 19.703125 L 25.523438 21.722656 C 25.597656 22.03125 25.257812 22.261719 25.003906 22.09375 L 23.265625 21.003906 L 21.523438 22.097656 C 21.261719 22.261719 20.9375 22.019531 21.011719 21.722656 L 21.496094 19.703125 L 19.933594 18.363281 C 19.695312 18.160156 19.828125 17.773438 20.128906 17.75 L 22.175781 17.597656 L 22.949219 15.675781 C 23.066406 15.386719 23.46875 15.390625 23.582031 15.675781 Z M 26.453125 22.972656 C 26.628906 22.839844 26.792969 22.691406 26.949219 22.535156 C 27.890625 21.578125 28.472656 20.261719 28.472656 18.804688 C 28.472656 17.347656 27.890625 16.03125 26.949219 15.074219 C 26.007812 14.121094 24.703125 13.53125 23.265625 13.53125 C 21.828125 13.53125 20.527344 14.121094 19.585938 15.074219 C 18.640625 16.03125 18.058594 17.347656 18.058594 18.804688 C 18.058594 20.261719 18.640625 21.578125 19.585938 22.535156 C 19.71875 22.667969 19.855469 22.796875 20.003906 22.914062 C 21.046875 23.265625 22.160156 23.453125 23.320312 23.453125 C 24.410156 23.453125 25.464844 23.285156 26.453125 22.972656 Z M 26.453125 22.972656 " fill-opacity="1" fill-rule="evenodd"/><path fill="#5ea8f2" d="M 24.699219 26.207031 L 25.808594 30.398438 L 26.816406 28.648438 C 26.910156 28.484375 27.117188 28.425781 27.28125 28.519531 L 29.015625 29.527344 L 27.769531 24.8125 C 26.882812 25.496094 25.835938 25.984375 24.699219 26.207031 Z M 24.699219 26.207031 " fill-opacity="1" fill-rule="evenodd"/><path fill="#5ea8f2" d="M 18.761719 24.8125 L 17.515625 29.527344 L 19.25 28.519531 C 19.414062 28.425781 19.625 28.484375 19.71875 28.648438 L 20.722656 30.398438 L 21.832031 26.207031 C 20.695312 25.984375 19.652344 25.496094 18.761719 24.8125 Z M 18.761719 24.8125 " fill-opacity="1" fill-rule="evenodd"/><path fill="#629dd9" d="M 16.925781 22.761719 C 16.226562 21.613281 15.820312 20.257812 15.820312 18.804688 C 15.820312 17.503906 16.144531 16.277344 16.71875 15.210938 C 16.371094 15.082031 16.015625 14.980469 15.644531 14.90625 C 15.160156 14.808594 14.65625 14.757812 14.140625 14.757812 C 12.25 14.757812 10.523438 15.453125 9.191406 16.601562 C 7.894531 17.722656 6.972656 19.277344 6.644531 21.042969 C 7.625 21.640625 8.761719 22.125 10.003906 22.460938 C 11.285156 22.808594 12.679688 23 14.140625 23 C 14.714844 23 15.269531 22.972656 15.808594 22.917969 C 16.1875 22.878906 16.5625 22.824219 16.925781 22.761719 Z M 16.925781 22.761719 " fill-opacity="1" fill-rule="evenodd"/><path fill="#72b2f2" d="M 16 20.457031 C 15.882812 19.925781 15.820312 19.371094 15.820312 18.804688 C 15.820312 17.503906 16.144531 16.277344 16.71875 15.210938 C 16.371094 15.082031 16.015625 14.980469 15.644531 14.90625 C 15.160156 14.808594 14.65625 14.757812 14.140625 14.757812 C 13.746094 14.757812 13.359375 14.785156 12.984375 14.84375 C 13.40625 17.027344 14.480469 18.96875 16 20.457031 Z M 16 20.457031 " fill-opacity="1" fill-rule="evenodd"/><g clip-path="url(#66bfbd1873)"><path fill="#ffc95f" d="M 23.265625 12.835938 C 24.894531 12.835938 26.367188 13.503906 27.433594 14.582031 C 28.5 15.664062 29.160156 17.15625 29.160156 18.804688 C 29.160156 20.453125 28.5 21.945312 27.433594 23.027344 C 26.367188 24.105469 24.894531 24.773438 23.265625 24.773438 C 21.636719 24.773438 20.164062 24.105469 19.097656 23.027344 C 18.03125 21.945312 17.375 20.453125 17.375 18.804688 C 17.375 17.15625 18.03125 15.664062 19.097656 14.582031 C 20.164062 13.503906 21.640625 12.835938 23.265625 12.835938 Z M 28.046875 13.964844 C 26.824219 12.726562 25.132812 11.957031 23.265625 11.957031 C 21.398438 11.957031 19.710938 12.726562 18.488281 13.964844 C 17.265625 15.203125 16.507812 16.914062 16.507812 18.804688 C 16.507812 20.695312 17.265625 22.40625 18.488281 23.644531 C 19.753906 24.929688 21.464844 25.652344 23.265625 25.652344 C 25.066406 25.652344 26.777344 24.929688 28.046875 23.644531 C 29.269531 22.40625 30.027344 20.695312 30.027344 18.804688 C 30.027344 16.914062 29.269531 15.203125 28.046875 13.964844 Z M 28.046875 13.964844 " fill-opacity="1" fill-rule="evenodd"/></g><g clip-path="url(#4e2b55a3cd)"><path fill="#ffd47f" d="M 23.265625 12.835938 C 24.894531 12.835938 26.367188 13.503906 27.433594 14.582031 C 28.5 15.664062 29.160156 17.15625 29.160156 18.804688 C 29.160156 20.125 28.734375 21.347656 28.019531 22.335938 C 28.546875 22.070312 29.046875 21.761719 29.519531 21.410156 C 29.84375 20.609375 30.027344 19.726562 30.027344 18.804688 C 30.027344 16.914062 29.269531 15.203125 28.046875 13.964844 C 26.824219 12.726562 25.132812 11.957031 23.265625 11.957031 C 21.398438 11.957031 19.710938 12.726562 18.488281 13.964844 C 17.261719 15.203125 16.507812 16.914062 16.507812 18.804688 C 16.507812 19.683594 16.671875 20.523438 16.96875 21.296875 C 17.433594 21.65625 17.929688 21.972656 18.453125 22.25 C 17.773438 21.277344 17.371094 20.085938 17.371094 18.804688 C 17.371094 17.15625 18.03125 15.664062 19.097656 14.582031 C 20.164062 13.503906 21.640625 12.835938 23.265625 12.835938 Z M 23.265625 12.835938 " fill-opacity="1" fill-rule="evenodd"/></g><path fill="#ffc95f" d="M 23.804688 18.058594 L 23.265625 16.722656 L 22.738281 18.03125 C 22.695312 18.164062 22.578125 18.265625 22.433594 18.273438 L 21.015625 18.378906 L 22.101562 19.3125 C 22.199219 19.394531 22.246094 19.527344 22.214844 19.660156 L 21.875 21.0625 L 23.082031 20.304688 C 23.1875 20.234375 23.332031 20.230469 23.445312 20.300781 L 24.660156 21.0625 L 24.324219 19.675781 C 24.285156 19.546875 24.324219 19.402344 24.429688 19.3125 L 25.519531 18.378906 L 24.097656 18.273438 C 23.972656 18.265625 23.855469 18.183594 23.804688 18.058594 Z M 23.804688 18.058594 " fill-opacity="1" fill-rule="evenodd"/><path fill="#629dd9" d="M 15.960938 6.953125 C 15.496094 6.484375 14.851562 6.191406 14.140625 6.191406 C 13.429688 6.191406 12.785156 6.484375 12.320312 6.953125 C 11.855469 7.425781 11.566406 8.078125 11.566406 8.796875 C 11.566406 9.515625 11.855469 10.167969 12.320312 10.640625 C 12.785156 11.113281 13.429688 11.402344 14.140625 11.402344 C 14.851562 11.402344 15.496094 11.113281 15.960938 10.640625 C 16.425781 10.167969 16.714844 9.515625 16.714844 8.796875 C 16.714844 8.078125 16.425781 7.425781 15.960938 6.953125 Z M 15.960938 6.953125 " fill-opacity="1" fill-rule="evenodd"/><path fill="#72b2f2" d="M 15.960938 6.953125 C 15.679688 6.667969 15.332031 6.449219 14.941406 6.320312 C 13.910156 7.691406 13.199219 9.316406 12.921875 11.09375 C 13.285156 11.289062 13.699219 11.402344 14.140625 11.402344 C 14.851562 11.402344 15.496094 11.113281 15.960938 10.640625 C 16.425781 10.167969 16.714844 9.515625 16.714844 8.796875 C 16.714844 8.078125 16.425781 7.425781 15.960938 6.953125 Z M 15.960938 6.953125 " fill-opacity="1" fill-rule="evenodd"/></svg>